<?xml version="1.0" standalone="no"?>
<!DOCTYPE svg PUBLIC "-//W3C//DTD SVG 20010904//EN"
 "http://www.w3.org/TR/2001/REC-SVG-20010904/DTD/svg10.dtd">
<svg version="1.0" xmlns="http://www.w3.org/2000/svg"
 width="491.000000pt" height="491.000000pt" viewBox="0 0 491.000000 491.000000"
 preserveAspectRatio="xMidYMid meet">
<metadata>
Created by potrace 1.11, written by Peter Selinger 2001-2013
</metadata>
<g transform="translate(0.000000,491.000000) scale(0.100000,-0.100000)"
fill="#000000" stroke="none">
<path d="M63 4690 c-13 -5 -31 -23 -42 -40 -18 -30 -19 -70 -19 -1018 0 -543
4 -994 9 -1003 10 -19 2362 -2373 2392 -2394 28 -19 77 -19 104 0 42 29 2385
2379 2393 2399 4 12 7 465 6 1008 -1 985 -1 987 -22 1015 -26 35 -81 51 -121
34 -15 -6 -541 -525 -1167 -1152 l-1139 -1140 -28 27 c-15 14 -526 525 -1135
1135 -610 611 -1121 1116 -1136 1124 -30 17 -62 18 -95 5z"/>
</g>
</svg>
