<?xml version="1.0" standalone="no"?>
<!DOCTYPE svg PUBLIC "-//W3C//DTD SVG 20010904//EN"
 "http://www.w3.org/TR/2001/REC-SVG-20010904/DTD/svg10.dtd">
<svg version="1.0" xmlns="http://www.w3.org/2000/svg"
 width="512.000000pt" height="512.000000pt" viewBox="0 0 512.000000 512.000000"
 preserveAspectRatio="xMidYMid meet">
<metadata>
Created by potrace 1.11, written by Peter Selinger 2001-2013
</metadata>
<g transform="translate(0.000000,512.000000) scale(0.100000,-0.100000)"
fill="#000000" stroke="none">
<path d="M59 5105 c-62 -34 -59 27 -59 -1203 0 -655 4 -1131 9 -1145 5 -13 15
-30 23 -38 7 -8 56 -61 108 -119 52 -57 104 -114 115 -126 11 -11 52 -56 91
-100 40 -43 82 -91 95 -105 178 -193 217 -235 232 -253 10 -12 33 -37 51 -56
18 -19 84 -91 146 -160 63 -69 119 -130 125 -136 5 -6 46 -51 90 -99 44 -49
98 -108 120 -131 22 -23 71 -78 110 -121 38 -43 99 -110 135 -148 94 -103 252
-275 271 -296 9 -10 54 -60 101 -111 47 -51 104 -113 126 -138 22 -25 55 -61
73 -81 19 -19 72 -78 119 -129 47 -52 94 -104 105 -116 12 -12 59 -64 105
-115 115 -126 157 -169 167 -170 4 0 20 -3 35 -5 35 -6 75 15 112 57 28 32
206 229 216 239 6 6 197 215 255 279 22 24 49 54 60 65 11 12 43 47 70 77 28
30 89 97 136 149 109 119 125 137 213 234 39 43 82 90 96 105 71 77 217 236
232 253 9 11 52 58 95 105 43 47 89 98 103 113 73 79 207 226 220 240 8 9 58
63 110 121 52 57 100 109 105 115 9 9 135 148 203 223 13 14 40 44 61 66 149
160 264 292 272 312 5 14 9 500 9 1145 0 1229 3 1164 -59 1201 -59 35 -100 18
-183 -75 -31 -35 -73 -81 -93 -103 -55 -60 -177 -193 -200 -219 -11 -12 -63
-69 -115 -126 -52 -56 -103 -112 -113 -124 -10 -12 -60 -66 -110 -121 -162
-175 -175 -190 -197 -214 -11 -14 -62 -70 -114 -125 -51 -56 -111 -121 -132
-145 -22 -24 -52 -58 -69 -75 -16 -18 -66 -72 -110 -121 -44 -48 -91 -100
-105 -115 -14 -15 -61 -67 -105 -115 -44 -48 -95 -104 -114 -124 -18 -20 -70
-76 -115 -126 -70 -78 -142 -157 -196 -215 -46 -50 -131 -143 -169 -186 -42
-47 -105 -115 -214 -233 -43 -46 -52 -52 -62 -38 -6 8 -52 60 -102 114 -49 54
-110 120 -134 147 -70 78 -87 95 -188 206 -53 57 -123 134 -156 170 -33 36
-64 70 -70 76 -28 30 -182 200 -198 218 -17 19 -89 99 -252 276 -33 36 -98
107 -145 159 -47 51 -98 108 -115 125 -16 18 -61 68 -100 111 -38 43 -77 85
-86 94 -8 9 -42 45 -75 81 -32 36 -100 110 -151 165 -50 55 -100 110 -110 121
-10 12 -56 63 -103 114 -100 109 -109 118 -220 240 -172 189 -172 189 -215
195 -26 3 -49 0 -66 -10z"/>
</g>
</svg>
